<?xml version="1.0" standalone="no"?>
<!DOCTYPE svg PUBLIC "-//W3C//DTD SVG 1.1//EN" "http://www.w3.org/Graphics/SVG/1.1/DTD/svg11.dtd"><svg t="1657704752854"
    class="icon" viewBox="0 0 1024 1024" version="1.1" xmlns="http://www.w3.org/2000/svg" p-id="20091" width="24"
    height="24" xmlns:xlink="http://www.w3.org/1999/xlink">
    <defs>
        <style type="text/css">
            @font-face {
                font-family: feedback-iconfont;
                src: url("//at.alicdn.com/t/font_1031158_u69w8yhxdu.woff2?t=1630033759944") format("woff2"), url("//at.alicdn.com/t/font_1031158_u69w8yhxdu.woff?t=1630033759944") format("woff"), url("//at.alicdn.com/t/font_1031158_u69w8yhxdu.ttf?t=1630033759944") format("truetype");
            }
        </style>
    </defs>
    <path d="M128 512h768v320H128V512z"  opacity=".1" p-id="20092"></path>
    <path
        d="M896 864H128c-19.2 0-32-12.8-32-32V256c0-19.2 12.8-32 32-32h768c19.2 0 32 12.8 32 32v576c0 19.2-12.8 32-32 32z m-736-64h704v-512h-704v512z"
         p-id="20093"></path>
    <path
        d="M768 288H256c-12.8 0-19.2-6.4-25.6-12.8s-6.4-19.2 0-32l64-128c0-12.8 12.8-19.2 25.6-19.2h384c12.8 0 25.6 6.4 25.6 19.2l64 128c6.4 12.8 6.4 19.2 0 32-6.4 6.4-12.8 12.8-25.6 12.8z m-460.8-64h409.6l-32-64H339.2l-32 64zM512 736c-108.8 0-192-83.2-192-192s83.2-192 192-192 192 83.2 192 192-83.2 192-192 192z m0-320c-70.4 0-128 57.6-128 128s57.6 128 128 128 128-57.6 128-128-57.6-128-128-128z"
         p-id="20094"></path>
</svg>