<?xml version="1.0" standalone="no"?>
<!DOCTYPE svg PUBLIC "-//W3C//DTD SVG 1.1//EN" "http://www.w3.org/Graphics/SVG/1.1/DTD/svg11.dtd"><svg t="1657762650397"
  class="icon" viewBox="0 0 1024 1024" version="1.1" xmlns="http://www.w3.org/2000/svg" p-id="9039"
  xmlns:xlink="http://www.w3.org/1999/xlink" width="50" height="50">
  <defs>
    <style type="text/css">
      @font-face {
        font-family: feedback-iconfont;
        src: url("//at.alicdn.com/t/font_1031158_u69w8yhxdu.woff2?t=1630033759944") format("woff2"), url("//at.alicdn.com/t/font_1031158_u69w8yhxdu.woff?t=1630033759944") format("woff"), url("//at.alicdn.com/t/font_1031158_u69w8yhxdu.ttf?t=1630033759944") format("truetype");
      }
    </style>
  </defs>
  <path
    d="M196.266667 989.866667c-18.773333 0-39.253333-5.12-56.32-15.36-35.84-20.48-56.32-58.026667-56.32-98.986667V148.48c0-40.96 20.48-78.506667 56.32-98.986667 35.84-20.48 78.506667-20.48 114.346666 0l629.76 363.52c35.84 20.48 56.32 58.026667 56.32 98.986667s-20.48 78.506667-56.32 98.986667L254.293333 974.506667c-18.773333 10.24-37.546667 15.36-58.026666 15.36z m0-904.533334c-10.24 0-22.186667 3.413333-30.72 8.533334-18.773333 11.946667-30.72 32.426667-30.72 54.613333v727.04c0 22.186667 11.946667 42.666667 30.72 54.613333 20.48 11.946667 42.666667 11.946667 63.146666 0l629.76-363.52c20.48-11.946667 30.72-32.426667 30.72-54.613333s-11.946667-42.666667-30.72-54.613333L228.693333 93.866667c-10.24-5.12-20.48-8.533333-32.426666-8.533334z"
     p-id="9040"></path>
  <path
    d="M291.84 512v-167.253333c0-30.72 34.133333-51.2 61.44-35.84l145.066667 83.626666 145.066666 83.626667c27.306667 15.36 27.306667 54.613333 0 69.973333l-145.066666 85.333334-145.066667 83.626666c-27.306667 15.36-61.44-3.413333-61.44-35.84V512z"
     p-id="9041"></path>
  <path
    d="M680.96 469.333333L206.506667 194.56c-25.6-13.653333-54.613333-13.653333-80.213334 0s-39.253333 39.253333-39.253333 68.266667v549.546666c0 29.013333 15.36 54.613333 39.253333 68.266667 11.946667 6.826667 25.6 10.24 39.253334 10.24 13.653333 0 27.306667-3.413333 39.253333-10.24l476.16-274.773333c25.6-13.653333 39.253333-39.253333 39.253333-68.266667 1.706667-29.013333-13.653333-54.613333-39.253333-68.266667z"
     opacity=".3" p-id="9042"></path>
</svg>